<svg width="700" height="700" viewBox="0 0 700 700" fill="none" xmlns="http://www.w3.org/2000/svg">
<path d="M233.376 557.224C233.376 559.08 232.736 560.627 231.456 561.864C230.197 563.08 228.267 563.688 225.664 563.688H221.376V573H218.464V550.696H225.664C228.181 550.696 230.091 551.304 231.392 552.52C232.715 553.736 233.376 555.304 233.376 557.224ZM225.664 561.288C227.285 561.288 228.48 560.936 229.248 560.232C230.016 559.528 230.4 558.525 230.4 557.224C230.4 554.472 228.821 553.096 225.664 553.096H221.376V561.288H225.664ZM250.179 568.04H240.451L238.659 573H235.587L243.651 550.824H247.011L255.043 573H251.971L250.179 568.04ZM249.347 565.672L245.315 554.408L241.283 565.672H249.347ZM275.454 557.16C274.835 555.859 273.939 554.856 272.766 554.152C271.592 553.427 270.227 553.064 268.67 553.064C267.112 553.064 265.704 553.427 264.446 554.152C263.208 554.856 262.227 555.88 261.502 557.224C260.798 558.547 260.446 560.083 260.446 561.832C260.446 563.581 260.798 565.117 261.502 566.44C262.227 567.763 263.208 568.787 264.446 569.512C265.704 570.216 267.112 570.568 268.67 570.568C270.846 570.568 272.638 569.917 274.046 568.616C275.454 567.315 276.275 565.555 276.51 563.336H267.614V560.968H279.614V563.208C279.443 565.043 278.867 566.728 277.886 568.264C276.904 569.779 275.614 570.984 274.014 571.88C272.414 572.755 270.632 573.192 268.67 573.192C266.6 573.192 264.712 572.712 263.006 571.752C261.299 570.771 259.944 569.416 258.942 567.688C257.96 565.96 257.47 564.008 257.47 561.832C257.47 559.656 257.96 557.704 258.942 555.976C259.944 554.227 261.299 552.872 263.006 551.912C264.712 550.931 266.6 550.44 268.67 550.44C271.038 550.44 273.128 551.027 274.942 552.2C276.776 553.373 278.11 555.027 278.942 557.16H275.454ZM286.376 553.064V560.52H294.504V562.92H286.376V570.6H295.464V573H283.464V550.664H295.464V553.064H286.376ZM325.938 573H323.026L311.314 555.24V573H308.402V550.664H311.314L323.026 568.392V550.664H325.938V573ZM341.014 573.224C338.944 573.224 337.056 572.744 335.35 571.784C333.643 570.803 332.288 569.448 331.286 567.72C330.304 565.971 329.814 564.008 329.814 561.832C329.814 559.656 330.304 557.704 331.286 555.976C332.288 554.227 333.643 552.872 335.35 551.912C337.056 550.931 338.944 550.44 341.014 550.44C343.104 550.44 345.003 550.931 346.71 551.912C348.416 552.872 349.76 554.216 350.742 555.944C351.723 557.672 352.214 559.635 352.214 561.832C352.214 564.029 351.723 565.992 350.742 567.72C349.76 569.448 348.416 570.803 346.71 571.784C345.003 572.744 343.104 573.224 341.014 573.224ZM341.014 570.696C342.571 570.696 343.968 570.333 345.206 569.608C346.464 568.883 347.446 567.848 348.15 566.504C348.875 565.16 349.238 563.603 349.238 561.832C349.238 560.04 348.875 558.483 348.15 557.16C347.446 555.816 346.475 554.781 345.238 554.056C344 553.331 342.592 552.968 341.014 552.968C339.435 552.968 338.027 553.331 336.79 554.056C335.552 554.781 334.571 555.816 333.846 557.16C333.142 558.483 332.79 560.04 332.79 561.832C332.79 563.603 333.142 565.16 333.846 566.504C334.571 567.848 335.552 568.883 336.79 569.608C338.048 570.333 339.456 570.696 341.014 570.696ZM369.786 550.696V553.064H363.706V573H360.794V553.064H354.682V550.696H369.786ZM394.51 550.696V553.064H384.814V560.584H392.686V562.952H384.814V573H381.902V550.696H394.51ZM408.139 573.224C406.069 573.224 404.181 572.744 402.475 571.784C400.768 570.803 399.413 569.448 398.411 567.72C397.429 565.971 396.939 564.008 396.939 561.832C396.939 559.656 397.429 557.704 398.411 555.976C399.413 554.227 400.768 552.872 402.475 551.912C404.181 550.931 406.069 550.44 408.139 550.44C410.229 550.44 412.128 550.931 413.835 551.912C415.541 552.872 416.885 554.216 417.867 555.944C418.848 557.672 419.339 559.635 419.339 561.832C419.339 564.029 418.848 565.992 417.867 567.72C416.885 569.448 415.541 570.803 413.835 571.784C412.128 572.744 410.229 573.224 408.139 573.224ZM408.139 570.696C409.696 570.696 411.093 570.333 412.331 569.608C413.589 568.883 414.571 567.848 415.275 566.504C416 565.16 416.363 563.603 416.363 561.832C416.363 560.04 416 558.483 415.275 557.16C414.571 555.816 413.6 554.781 412.363 554.056C411.125 553.331 409.717 552.968 408.139 552.968C406.56 552.968 405.152 553.331 403.915 554.056C402.677 554.781 401.696 555.816 400.971 557.16C400.267 558.483 399.915 560.04 399.915 561.832C399.915 563.603 400.267 565.16 400.971 566.504C401.696 567.848 402.677 568.883 403.915 569.608C405.173 570.333 406.581 570.696 408.139 570.696ZM426.031 550.696V564.808C426.031 566.792 426.511 568.264 427.471 569.224C428.452 570.184 429.807 570.664 431.535 570.664C433.241 570.664 434.575 570.184 435.535 569.224C436.516 568.264 437.007 566.792 437.007 564.808V550.696H439.919V564.776C439.919 566.632 439.545 568.2 438.799 569.48C438.052 570.739 437.039 571.677 435.759 572.296C434.5 572.915 433.081 573.224 431.503 573.224C429.924 573.224 428.495 572.915 427.215 572.296C425.956 571.677 424.953 570.739 424.207 569.48C423.481 568.2 423.119 566.632 423.119 564.776V550.696H426.031ZM462.312 573H459.401L447.689 555.24V573H444.777V550.664H447.689L459.401 568.392V550.664H462.312V573ZM474.22 550.696C476.653 550.696 478.754 551.155 480.525 552.072C482.317 552.968 483.682 554.259 484.621 555.944C485.581 557.629 486.061 559.613 486.061 561.896C486.061 564.179 485.581 566.163 484.621 567.848C483.682 569.512 482.317 570.792 480.525 571.688C478.754 572.563 476.653 573 474.22 573H467.277V550.696H474.22ZM474.22 570.6C477.101 570.6 479.298 569.843 480.812 568.328C482.327 566.792 483.085 564.648 483.085 561.896C483.085 559.123 482.317 556.957 480.781 555.4C479.266 553.843 477.079 553.064 474.22 553.064H470.189V570.6H474.22Z" fill="#27BBA0"/>
<path d="M231.376 557.224C231.376 559.08 230.736 560.627 229.456 561.864C228.197 563.08 226.267 563.688 223.664 563.688H219.376V573H216.464V550.696H223.664C226.181 550.696 228.091 551.304 229.392 552.52C230.715 553.736 231.376 555.304 231.376 557.224ZM223.664 561.288C225.285 561.288 226.48 560.936 227.248 560.232C228.016 559.528 228.4 558.525 228.4 557.224C228.4 554.472 226.821 553.096 223.664 553.096H219.376V561.288H223.664ZM248.179 568.04H238.451L236.659 573H233.587L241.651 550.824H245.011L253.043 573H249.971L248.179 568.04ZM247.347 565.672L243.315 554.408L239.283 565.672H247.347ZM273.454 557.16C272.835 555.859 271.939 554.856 270.766 554.152C269.592 553.427 268.227 553.064 266.67 553.064C265.112 553.064 263.704 553.427 262.446 554.152C261.208 554.856 260.227 555.88 259.502 557.224C258.798 558.547 258.446 560.083 258.446 561.832C258.446 563.581 258.798 565.117 259.502 566.44C260.227 567.763 261.208 568.787 262.446 569.512C263.704 570.216 265.112 570.568 266.67 570.568C268.846 570.568 270.638 569.917 272.046 568.616C273.454 567.315 274.275 565.555 274.51 563.336H265.614V560.968H277.614V563.208C277.443 565.043 276.867 566.728 275.886 568.264C274.904 569.779 273.614 570.984 272.014 571.88C270.414 572.755 268.632 573.192 266.67 573.192C264.6 573.192 262.712 572.712 261.006 571.752C259.299 570.771 257.944 569.416 256.942 567.688C255.96 565.96 255.47 564.008 255.47 561.832C255.47 559.656 255.96 557.704 256.942 555.976C257.944 554.227 259.299 552.872 261.006 551.912C262.712 550.931 264.6 550.44 266.67 550.44C269.038 550.44 271.128 551.027 272.942 552.2C274.776 553.373 276.11 555.027 276.942 557.16H273.454ZM284.376 553.064V560.52H292.504V562.92H284.376V570.6H293.464V573H281.464V550.664H293.464V553.064H284.376ZM323.938 573H321.026L309.314 555.24V573H306.402V550.664H309.314L321.026 568.392V550.664H323.938V573ZM339.014 573.224C336.944 573.224 335.056 572.744 333.35 571.784C331.643 570.803 330.288 569.448 329.286 567.72C328.304 565.971 327.814 564.008 327.814 561.832C327.814 559.656 328.304 557.704 329.286 555.976C330.288 554.227 331.643 552.872 333.35 551.912C335.056 550.931 336.944 550.44 339.014 550.44C341.104 550.44 343.003 550.931 344.71 551.912C346.416 552.872 347.76 554.216 348.742 555.944C349.723 557.672 350.214 559.635 350.214 561.832C350.214 564.029 349.723 565.992 348.742 567.72C347.76 569.448 346.416 570.803 344.71 571.784C343.003 572.744 341.104 573.224 339.014 573.224ZM339.014 570.696C340.571 570.696 341.968 570.333 343.206 569.608C344.464 568.883 345.446 567.848 346.15 566.504C346.875 565.16 347.238 563.603 347.238 561.832C347.238 560.04 346.875 558.483 346.15 557.16C345.446 555.816 344.475 554.781 343.238 554.056C342 553.331 340.592 552.968 339.014 552.968C337.435 552.968 336.027 553.331 334.79 554.056C333.552 554.781 332.571 555.816 331.846 557.16C331.142 558.483 330.79 560.04 330.79 561.832C330.79 563.603 331.142 565.16 331.846 566.504C332.571 567.848 333.552 568.883 334.79 569.608C336.048 570.333 337.456 570.696 339.014 570.696ZM367.786 550.696V553.064H361.706V573H358.794V553.064H352.682V550.696H367.786ZM392.51 550.696V553.064H382.814V560.584H390.686V562.952H382.814V573H379.902V550.696H392.51ZM406.139 573.224C404.069 573.224 402.181 572.744 400.475 571.784C398.768 570.803 397.413 569.448 396.411 567.72C395.429 565.971 394.939 564.008 394.939 561.832C394.939 559.656 395.429 557.704 396.411 555.976C397.413 554.227 398.768 552.872 400.475 551.912C402.181 550.931 404.069 550.44 406.139 550.44C408.229 550.44 410.128 550.931 411.835 551.912C413.541 552.872 414.885 554.216 415.867 555.944C416.848 557.672 417.339 559.635 417.339 561.832C417.339 564.029 416.848 565.992 415.867 567.72C414.885 569.448 413.541 570.803 411.835 571.784C410.128 572.744 408.229 573.224 406.139 573.224ZM406.139 570.696C407.696 570.696 409.093 570.333 410.331 569.608C411.589 568.883 412.571 567.848 413.275 566.504C414 565.16 414.363 563.603 414.363 561.832C414.363 560.04 414 558.483 413.275 557.16C412.571 555.816 411.6 554.781 410.363 554.056C409.125 553.331 407.717 552.968 406.139 552.968C404.56 552.968 403.152 553.331 401.915 554.056C400.677 554.781 399.696 555.816 398.971 557.16C398.267 558.483 397.915 560.04 397.915 561.832C397.915 563.603 398.267 565.16 398.971 566.504C399.696 567.848 400.677 568.883 401.915 569.608C403.173 570.333 404.581 570.696 406.139 570.696ZM424.031 550.696V564.808C424.031 566.792 424.511 568.264 425.471 569.224C426.452 570.184 427.807 570.664 429.535 570.664C431.241 570.664 432.575 570.184 433.535 569.224C434.516 568.264 435.007 566.792 435.007 564.808V550.696H437.919V564.776C437.919 566.632 437.545 568.2 436.799 569.48C436.052 570.739 435.039 571.677 433.759 572.296C432.5 572.915 431.081 573.224 429.503 573.224C427.924 573.224 426.495 572.915 425.215 572.296C423.956 571.677 422.953 570.739 422.207 569.48C421.481 568.2 421.119 566.632 421.119 564.776V550.696H424.031ZM460.312 573H457.401L445.689 555.24V573H442.777V550.664H445.689L457.401 568.392V550.664H460.312V573ZM472.22 550.696C474.653 550.696 476.754 551.155 478.525 552.072C480.317 552.968 481.682 554.259 482.621 555.944C483.581 557.629 484.061 559.613 484.061 561.896C484.061 564.179 483.581 566.163 482.621 567.848C481.682 569.512 480.317 570.792 478.525 571.688C476.754 572.563 474.653 573 472.22 573H465.277V550.696H472.22ZM472.22 570.6C475.101 570.6 477.298 569.843 478.812 568.328C480.327 566.792 481.085 564.648 481.085 561.896C481.085 559.123 480.317 556.957 478.781 555.4C477.266 553.843 475.079 553.064 472.22 553.064H468.189V570.6H472.22Z" fill="#3A4DA9"/>
<path d="M229.376 557.224C229.376 559.08 228.736 560.627 227.456 561.864C226.197 563.08 224.267 563.688 221.664 563.688H217.376V573H214.464V550.696H221.664C224.181 550.696 226.091 551.304 227.392 552.52C228.715 553.736 229.376 555.304 229.376 557.224ZM221.664 561.288C223.285 561.288 224.48 560.936 225.248 560.232C226.016 559.528 226.4 558.525 226.4 557.224C226.4 554.472 224.821 553.096 221.664 553.096H217.376V561.288H221.664ZM246.179 568.04H236.451L234.659 573H231.587L239.651 550.824H243.011L251.043 573H247.971L246.179 568.04ZM245.347 565.672L241.315 554.408L237.283 565.672H245.347ZM271.454 557.16C270.835 555.859 269.939 554.856 268.766 554.152C267.592 553.427 266.227 553.064 264.67 553.064C263.112 553.064 261.704 553.427 260.446 554.152C259.208 554.856 258.227 555.88 257.502 557.224C256.798 558.547 256.446 560.083 256.446 561.832C256.446 563.581 256.798 565.117 257.502 566.44C258.227 567.763 259.208 568.787 260.446 569.512C261.704 570.216 263.112 570.568 264.67 570.568C266.846 570.568 268.638 569.917 270.046 568.616C271.454 567.315 272.275 565.555 272.51 563.336H263.614V560.968H275.614V563.208C275.443 565.043 274.867 566.728 273.886 568.264C272.904 569.779 271.614 570.984 270.014 571.88C268.414 572.755 266.632 573.192 264.67 573.192C262.6 573.192 260.712 572.712 259.006 571.752C257.299 570.771 255.944 569.416 254.942 567.688C253.96 565.96 253.47 564.008 253.47 561.832C253.47 559.656 253.96 557.704 254.942 555.976C255.944 554.227 257.299 552.872 259.006 551.912C260.712 550.931 262.6 550.44 264.67 550.44C267.038 550.44 269.128 551.027 270.942 552.2C272.776 553.373 274.11 555.027 274.942 557.16H271.454ZM282.376 553.064V560.52H290.504V562.92H282.376V570.6H291.464V573H279.464V550.664H291.464V553.064H282.376ZM321.938 573H319.026L307.314 555.24V573H304.402V550.664H307.314L319.026 568.392V550.664H321.938V573ZM337.014 573.224C334.944 573.224 333.056 572.744 331.35 571.784C329.643 570.803 328.288 569.448 327.286 567.72C326.304 565.971 325.814 564.008 325.814 561.832C325.814 559.656 326.304 557.704 327.286 555.976C328.288 554.227 329.643 552.872 331.35 551.912C333.056 550.931 334.944 550.44 337.014 550.44C339.104 550.44 341.003 550.931 342.71 551.912C344.416 552.872 345.76 554.216 346.742 555.944C347.723 557.672 348.214 559.635 348.214 561.832C348.214 564.029 347.723 565.992 346.742 567.72C345.76 569.448 344.416 570.803 342.71 571.784C341.003 572.744 339.104 573.224 337.014 573.224ZM337.014 570.696C338.571 570.696 339.968 570.333 341.206 569.608C342.464 568.883 343.446 567.848 344.15 566.504C344.875 565.16 345.238 563.603 345.238 561.832C345.238 560.04 344.875 558.483 344.15 557.16C343.446 555.816 342.475 554.781 341.238 554.056C340 553.331 338.592 552.968 337.014 552.968C335.435 552.968 334.027 553.331 332.79 554.056C331.552 554.781 330.571 555.816 329.846 557.16C329.142 558.483 328.79 560.04 328.79 561.832C328.79 563.603 329.142 565.16 329.846 566.504C330.571 567.848 331.552 568.883 332.79 569.608C334.048 570.333 335.456 570.696 337.014 570.696ZM365.786 550.696V553.064H359.706V573H356.794V553.064H350.682V550.696H365.786ZM390.51 550.696V553.064H380.814V560.584H388.686V562.952H380.814V573H377.902V550.696H390.51ZM404.139 573.224C402.069 573.224 400.181 572.744 398.475 571.784C396.768 570.803 395.413 569.448 394.411 567.72C393.429 565.971 392.939 564.008 392.939 561.832C392.939 559.656 393.429 557.704 394.411 555.976C395.413 554.227 396.768 552.872 398.475 551.912C400.181 550.931 402.069 550.44 404.139 550.44C406.229 550.44 408.128 550.931 409.835 551.912C411.541 552.872 412.885 554.216 413.867 555.944C414.848 557.672 415.339 559.635 415.339 561.832C415.339 564.029 414.848 565.992 413.867 567.72C412.885 569.448 411.541 570.803 409.835 571.784C408.128 572.744 406.229 573.224 404.139 573.224ZM404.139 570.696C405.696 570.696 407.093 570.333 408.331 569.608C409.589 568.883 410.571 567.848 411.275 566.504C412 565.16 412.363 563.603 412.363 561.832C412.363 560.04 412 558.483 411.275 557.16C410.571 555.816 409.6 554.781 408.363 554.056C407.125 553.331 405.717 552.968 404.139 552.968C402.56 552.968 401.152 553.331 399.915 554.056C398.677 554.781 397.696 555.816 396.971 557.16C396.267 558.483 395.915 560.04 395.915 561.832C395.915 563.603 396.267 565.16 396.971 566.504C397.696 567.848 398.677 568.883 399.915 569.608C401.173 570.333 402.581 570.696 404.139 570.696ZM422.031 550.696V564.808C422.031 566.792 422.511 568.264 423.471 569.224C424.452 570.184 425.807 570.664 427.535 570.664C429.241 570.664 430.575 570.184 431.535 569.224C432.516 568.264 433.007 566.792 433.007 564.808V550.696H435.919V564.776C435.919 566.632 435.545 568.2 434.799 569.48C434.052 570.739 433.039 571.677 431.759 572.296C430.5 572.915 429.081 573.224 427.503 573.224C425.924 573.224 424.495 572.915 423.215 572.296C421.956 571.677 420.953 570.739 420.207 569.48C419.481 568.2 419.119 566.632 419.119 564.776V550.696H422.031ZM458.312 573H455.401L443.689 555.24V573H440.777V550.664H443.689L455.401 568.392V550.664H458.312V573ZM470.22 550.696C472.653 550.696 474.754 551.155 476.525 552.072C478.317 552.968 479.682 554.259 480.621 555.944C481.581 557.629 482.061 559.613 482.061 561.896C482.061 564.179 481.581 566.163 480.621 567.848C479.682 569.512 478.317 570.792 476.525 571.688C474.754 572.563 472.653 573 470.22 573H463.277V550.696H470.22ZM470.22 570.6C473.101 570.6 475.298 569.843 476.812 568.328C478.327 566.792 479.085 564.648 479.085 561.896C479.085 559.123 478.317 556.957 476.781 555.4C475.266 553.843 473.079 553.064 470.22 553.064H466.189V570.6H470.22Z" fill="white"/>
<path d="M226.566 508.36V490.696L267.014 432.84H291.462V489.416H301.958V508.36H291.462V525H269.574V508.36H226.566ZM271.11 456.904L249.606 489.416H271.11V456.904ZM312.679 477C312.679 462.323 315.495 450.76 321.127 442.312C326.845 433.864 336.018 429.64 348.647 429.64C361.277 429.64 370.407 433.864 376.039 442.312C381.757 450.76 384.615 462.323 384.615 477C384.615 491.848 381.757 503.496 376.039 511.944C370.407 520.392 361.277 524.616 348.647 524.616C336.018 524.616 326.845 520.392 321.127 511.944C315.495 503.496 312.679 491.848 312.679 477ZM363.111 477C363.111 468.381 362.173 461.768 360.295 457.16C358.418 452.467 354.535 450.12 348.647 450.12C342.759 450.12 338.877 452.467 336.999 457.16C335.122 461.768 334.183 468.381 334.183 477C334.183 482.803 334.525 487.624 335.207 491.464C335.89 495.219 337.255 498.291 339.303 500.68C341.437 502.984 344.551 504.136 348.647 504.136C352.743 504.136 355.815 502.984 357.863 500.68C359.997 498.291 361.405 495.219 362.087 491.464C362.77 487.624 363.111 482.803 363.111 477ZM396.691 508.36V490.696L437.139 432.84H461.587V489.416H472.083V508.36H461.587V525H439.699V508.36H396.691ZM441.235 456.904L419.731 489.416H441.235V456.904Z" fill="#27BBA0"/>
<path d="M214.272 499.36V481.696L254.72 423.84H279.168V480.416H289.664V499.36H279.168V516H257.28V499.36H214.272ZM258.816 447.904L237.312 480.416H258.816V447.904ZM300.385 468C300.385 453.323 303.201 441.76 308.833 433.312C314.55 424.864 323.724 420.64 336.353 420.64C348.982 420.64 358.113 424.864 363.745 433.312C369.462 441.76 372.321 453.323 372.321 468C372.321 482.848 369.462 494.496 363.745 502.944C358.113 511.392 348.982 515.616 336.353 515.616C323.724 515.616 314.55 511.392 308.833 502.944C303.201 494.496 300.385 482.848 300.385 468ZM350.817 468C350.817 459.381 349.878 452.768 348.001 448.16C346.124 443.467 342.241 441.12 336.353 441.12C330.465 441.12 326.582 443.467 324.705 448.16C322.828 452.768 321.889 459.381 321.889 468C321.889 473.803 322.23 478.624 322.913 482.464C323.596 486.219 324.961 489.291 327.009 491.68C329.142 493.984 332.257 495.136 336.353 495.136C340.449 495.136 343.521 493.984 345.569 491.68C347.702 489.291 349.11 486.219 349.793 482.464C350.476 478.624 350.817 473.803 350.817 468ZM384.397 499.36V481.696L424.845 423.84H449.293V480.416H459.789V499.36H449.293V516H427.405V499.36H384.397ZM428.941 447.904L407.437 480.416H428.941V447.904Z" fill="#3A4DA9"/>
<path d="M219.86 503.36V485.696L260.308 427.84H284.756V484.416H295.252V503.36H284.756V520H262.868V503.36H219.86ZM264.404 451.904L242.9 484.416H264.404V451.904ZM305.973 472C305.973 457.323 308.789 445.76 314.421 437.312C320.138 428.864 329.312 424.64 341.941 424.64C354.57 424.64 363.701 428.864 369.333 437.312C375.05 445.76 377.909 457.323 377.909 472C377.909 486.848 375.05 498.496 369.333 506.944C363.701 515.392 354.57 519.616 341.941 519.616C329.312 519.616 320.138 515.392 314.421 506.944C308.789 498.496 305.973 486.848 305.973 472ZM356.405 472C356.405 463.381 355.466 456.768 353.589 452.16C351.712 447.467 347.829 445.12 341.941 445.12C336.053 445.12 332.17 447.467 330.293 452.16C328.416 456.768 327.477 463.381 327.477 472C327.477 477.803 327.818 482.624 328.501 486.464C329.184 490.219 330.549 493.291 332.597 495.68C334.73 497.984 337.845 499.136 341.941 499.136C346.037 499.136 349.109 497.984 351.157 495.68C353.29 493.291 354.698 490.219 355.381 486.464C356.064 482.624 356.405 477.803 356.405 472ZM389.985 503.36V485.696L430.433 427.84H454.881V484.416H465.377V503.36H454.881V520H432.993V503.36H389.985ZM434.529 451.904L413.025 484.416H434.529V451.904Z" fill="white"/>
<path d="M287 211H398.5L437 262.5V381H287V211Z" fill="#27BBA0"/>
<path d="M263 197H374.5L413 248.5V367H263V197Z" fill="#3A4DA9"/>
<path d="M273 205H384.5L423 256.5V375H273V205Z" fill="white"/>
<path d="M308.955 255.091L315.994 266.989H316.267L323.341 255.091H331.676L321.023 272.545L331.915 290H323.426L316.267 278.085H315.994L308.835 290H300.381L311.307 272.545L300.585 255.091H308.955Z" fill="black"/>
<path d="M366.955 255.091L373.994 266.989H374.267L381.341 255.091H389.676L379.023 272.545L389.915 290H381.426L374.267 278.085H373.994L366.835 290H358.381L369.307 272.545L358.585 255.091H366.955Z" fill="black"/>
<path d="M349.006 322.864C353.244 322.864 357.142 323.432 360.699 324.568C364.256 325.693 367.551 327.42 370.585 329.75V336.688C369.46 335.801 368.085 334.977 366.46 334.216C364.835 333.455 363.062 332.79 361.142 332.222C359.21 331.653 357.21 331.21 355.142 330.892C353.074 330.574 351.028 330.415 349.006 330.415C346.312 330.415 343.597 330.693 340.858 331.25C338.108 331.795 335.562 332.545 333.222 333.5C330.869 334.443 328.943 335.506 327.443 336.688V329.75C330.477 327.42 333.773 325.693 337.33 324.568C340.886 323.432 344.778 322.864 349.006 322.864Z" fill="black"/>
<rect x="133" y="136" width="86" height="13" fill="#3A4DA9"/>
<rect x="298" y="146" width="90" height="6" fill="#27BBA0"/>
<rect x="283" y="96" width="100" height="12" fill="#3A4DA9"/>
<rect x="133" y="80" width="100" height="4" fill="white"/>
<rect x="448" y="80" width="126" height="10" fill="#27BBA0"/>
<rect x="481" y="177" width="86" height="5" fill="white"/>
<rect x="453" y="126" width="100" height="10" fill="#27BBA0"/>
<rect x="448" y="242" width="92" height="14" fill="white"/>
<rect x="83" y="262" width="111" height="8" fill="white"/>
<rect x="156" y="206" width="69" height="15" fill="#27BBA0"/>
<rect x="121" y="323" width="87" height="9" fill="#3A4DA9"/>
<rect x="61" y="452" width="89" height="11" fill="#27BBA0"/>
<rect x="139" y="384" width="89" height="11" fill="#3A4DA9"/>
<rect x="516" y="463" width="82" height="11" fill="#3A4DA9"/>
<rect x="516" y="308" width="92" height="14" fill="white"/>
<rect x="556" y="380" width="84" height="9" fill="#27BBA0"/>
</svg>
