<svg width="265" height="103" viewBox="0 0 265 103" fill="none" xmlns="http://www.w3.org/2000/svg">
<path d="M7.27265 8.95948C5.83757 7.83818 4.03563 7.7088 2.40633 7.10503C0.884931 6.5336 -0.204866 5.36917 0.0325153 3.77348C0.280687 2.10232 1.47838 0.937896 3.34507 0.927115C11.2866 0.873206 19.228 0.646791 27.1587 0.916333C32.0143 1.08884 35.2944 4.1185 37.2259 8.50665C41.7685 18.8247 46.3111 29.1428 50.8106 39.4717C56.0437 51.4933 61.223 63.5256 66.4454 75.5472C67.8912 78.8788 68.0531 81.9624 66.154 85.3586C63.7371 89.6713 61.9567 94.3182 59.8526 98.8034C59.1081 100.388 58.2665 102.092 56.2272 102.178C53.9397 102.286 53.0117 100.485 52.2349 98.7495C44.8544 82.2211 37.5172 65.682 30.1476 49.1644C25.4431 38.6307 20.8358 28.0539 15.8831 17.628C14.4696 14.663 13.5956 10.8678 9.51698 9.94061C8.75089 9.61716 8.00637 9.28293 7.27265 8.95948Z" fill="#27BBA0"/>
<path d="M250.113 102.9C247.426 102.9 244.707 102.685 242.042 102.954C238.33 103.321 236.388 101.456 235.028 98.3721C231.931 91.3101 228.899 84.2157 225.576 77.2508C223.332 72.5499 220.645 68.054 218.131 63.4825C216.275 60.1186 213.858 57.337 210.276 55.655C208.668 54.9003 206.996 53.8976 207.222 51.8275C207.481 49.5526 209.499 49.0782 211.366 48.6146C212.542 48.3235 213.707 48.0216 214.883 47.752C225.867 45.2399 230.011 37.876 229.579 27.6765C229.094 16.3126 220.753 8.42042 210.006 7.84899C207.46 7.70883 204.892 7.81665 202.345 7.64414C200.306 7.50398 198.525 6.53363 198.45 4.3126C198.364 2.00531 199.853 0.485094 202.183 0.39884C214.031 -0.0755542 225.911 -0.506822 237.186 4.18322C246.487 8.05384 251.278 15.2021 252.109 25.1752C253.004 35.8275 250.253 44.5175 239.97 49.7143C235.082 52.1833 235.395 52.3019 237.974 57.1537C242.376 65.434 246.584 73.8222 250.695 82.2535C253.414 87.8276 257.396 92.2481 262.252 95.9894C263.773 97.1538 265.284 98.4584 264.507 100.679C263.73 102.933 261.669 102.89 259.791 102.922C256.565 102.976 253.328 102.944 250.102 102.944C250.113 102.922 250.113 102.911 250.113 102.9Z" fill="#27BBA0"/>
<path d="M90.0851 46.4797C90.0851 34.2425 90.0419 22.0053 90.1067 9.76804C90.139 2.27476 92.2323 0.269363 99.753 0.2478C106.626 0.226236 113.489 0.204673 120.362 0.2478C122.52 0.258581 125.088 0.150764 125.606 2.86775C126.124 5.58474 123.675 6.3718 121.689 7.19121C114.309 10.2748 112.388 13.1319 112.28 21.0349C112.011 41.2075 111.687 61.3692 111.417 81.5418C111.309 89.8545 113.532 93.1105 121.139 96.3235C122.952 97.089 125.412 97.7467 124.915 100.302C124.451 102.717 122.067 102.879 120.006 102.89C107.079 102.911 94.1422 102.911 81.2157 102.89C80.1474 102.89 79.0684 102.695 78.0326 102.447C76.7594 102.135 75.8422 101.283 75.7451 99.9461C75.6588 98.7494 76.5436 97.9407 77.5147 97.4663C78.7124 96.8734 80.018 96.4852 81.2804 96.0432C87.1934 93.9731 90.0311 90.1779 90.0527 84C90.1175 71.4932 90.0851 58.9865 90.0851 46.4797Z" fill="#27BBA0"/>
<path d="M180.506 101.793C174.172 101.793 167.849 102.418 161.515 102.375C160.188 102.365 158.839 102.181 157.534 101.922C156.325 101.685 155.732 100.726 155.667 99.5828C155.602 98.44 156.077 97.4804 157.232 97.0276C157.857 96.7904 158.505 96.6071 159.142 96.3914C167.73 93.5559 169.273 90.4076 165.939 82.0195C160.102 67.3348 154.167 52.6824 148.297 38.0086C146.517 33.5449 144.748 29.0813 143.064 24.5854C141.716 20.9951 142.244 17.6635 144.24 14.3212C146.215 10.9896 147.747 7.38855 149.376 3.86293C150.186 2.1163 151.2 -0.0939482 152.97 0.00308695C154.815 0.110904 156.217 2.10552 157.037 4.02466C159.454 9.70661 161.882 15.3778 164.288 21.0705C172.813 41.2215 181.283 61.3833 189.872 81.5019C192.537 87.7337 196.561 92.8011 203.187 95.3456C204.805 95.971 206.65 96.8012 206.24 99.0006C205.83 101.254 203.92 101.772 201.924 101.782C194.781 101.815 187.649 101.793 180.506 101.793C180.506 101.599 180.506 101.998 180.506 101.793Z" fill="#27BBA0"/>
<path d="M33.0825 102.933C23.0693 102.933 13.8222 102.965 4.57513 102.9C3.194 102.89 1.29495 103.224 0.809399 101.369C0.248316 99.2561 2.15816 98.717 3.57166 98.027C8.53509 95.6335 11.9232 91.8383 13.9301 86.7278C14.5883 85.0566 14.8904 82.6846 17.2643 82.7062C19.5949 82.7278 19.8862 85.1213 20.6415 86.7493C23.447 92.7655 27.4609 97.3477 34.3126 98.6955C35.6182 98.9542 36.8051 99.5688 36.5029 100.992C36.0498 103.116 33.2422 102.933 33.0825 102.933Z" fill="#27BBA0"/>
</svg>
