<svg width="1920" height="1080" viewBox="0 0 1920 1080" fill="none" xmlns="http://www.w3.org/2000/svg">
<path d="M197.176 572.248H240.975C240.096 586.604 236.141 599.348 229.109 610.48C222.176 621.613 212.459 630.305 199.959 636.555C187.557 642.805 172.615 645.93 155.135 645.93C141.463 645.93 129.207 643.586 118.367 638.898C107.527 634.113 98.25 627.277 90.5352 618.391C82.918 609.504 77.1074 598.762 73.1035 586.164C69.0996 573.566 67.0977 559.455 67.0977 543.83V529.035C67.0977 513.41 69.1484 499.299 73.25 486.701C77.4492 474.006 83.4062 463.215 91.1211 454.328C98.9336 445.441 108.26 438.605 119.1 433.82C129.939 429.035 142.049 426.643 155.428 426.643C173.201 426.643 188.191 429.865 200.398 436.311C212.703 442.756 222.225 451.643 228.963 462.971C235.799 474.299 239.9 487.189 241.268 501.643H197.322C196.834 493.049 195.125 485.773 192.195 479.816C189.266 473.762 184.822 469.221 178.865 466.193C173.006 463.068 165.193 461.506 155.428 461.506C148.104 461.506 141.707 462.873 136.238 465.607C130.77 468.342 126.18 472.492 122.469 478.059C118.758 483.625 115.975 490.656 114.119 499.152C112.361 507.551 111.482 517.414 111.482 528.742V543.83C111.482 554.865 112.312 564.582 113.973 572.98C115.633 581.281 118.172 588.312 121.59 594.074C125.105 599.738 129.598 604.035 135.066 606.965C140.633 609.797 147.322 611.213 155.135 611.213C164.314 611.213 171.883 609.748 177.84 606.818C183.797 603.889 188.338 599.543 191.463 593.781C194.686 588.02 196.59 580.842 197.176 572.248ZM260.457 565.363V562.287C260.457 550.666 262.117 539.973 265.438 530.207C268.758 520.344 273.592 511.799 279.939 504.572C286.287 497.346 294.1 491.73 303.377 487.727C312.654 483.625 323.299 481.574 335.311 481.574C347.322 481.574 358.016 483.625 367.391 487.727C376.766 491.73 384.627 497.346 390.975 504.572C397.42 511.799 402.303 520.344 405.623 530.207C408.943 539.973 410.604 550.666 410.604 562.287V565.363C410.604 576.887 408.943 587.58 405.623 597.443C402.303 607.209 397.42 615.754 390.975 623.078C384.627 630.305 376.814 635.92 367.537 639.924C358.26 643.928 347.615 645.93 335.604 645.93C323.592 645.93 312.898 643.928 303.523 639.924C294.246 635.92 286.385 630.305 279.939 623.078C273.592 615.754 268.758 607.209 265.438 597.443C262.117 587.58 260.457 576.887 260.457 565.363ZM302.645 562.287V565.363C302.645 572.004 303.23 578.205 304.402 583.967C305.574 589.729 307.43 594.807 309.969 599.201C312.605 603.498 316.023 606.867 320.223 609.309C324.422 611.75 329.549 612.971 335.604 612.971C341.463 612.971 346.492 611.75 350.691 609.309C354.891 606.867 358.26 603.498 360.799 599.201C363.338 594.807 365.193 589.729 366.365 583.967C367.635 578.205 368.27 572.004 368.27 565.363V562.287C368.27 555.842 367.635 549.787 366.365 544.123C365.193 538.361 363.289 533.283 360.652 528.889C358.113 524.396 354.744 520.881 350.545 518.342C346.346 515.803 341.268 514.533 335.311 514.533C329.354 514.533 324.275 515.803 320.076 518.342C315.975 520.881 312.605 524.396 309.969 528.889C307.43 533.283 305.574 538.361 304.402 544.123C303.23 549.787 302.645 555.842 302.645 562.287ZM478.719 517.316V643H436.385V484.504H476.082L478.719 517.316ZM472.859 558.186H461.141C461.141 547.15 462.459 536.994 465.096 527.717C467.83 518.342 471.785 510.236 476.961 503.4C482.234 496.467 488.729 491.096 496.443 487.287C504.158 483.479 513.094 481.574 523.25 481.574C530.281 481.574 536.727 482.648 542.586 484.797C548.445 486.848 553.475 490.119 557.674 494.611C561.971 499.006 565.291 504.768 567.635 511.896C569.979 518.928 571.15 527.375 571.15 537.238V643H528.963V541.926C528.963 534.699 527.986 529.133 526.033 525.227C524.08 521.32 521.297 518.586 517.684 517.023C514.168 515.461 509.92 514.68 504.939 514.68C499.471 514.68 494.686 515.803 490.584 518.049C486.58 520.295 483.26 523.42 480.623 527.424C477.986 531.33 476.033 535.92 474.764 541.193C473.494 546.467 472.859 552.131 472.859 558.186ZM567.195 553.352L552.107 555.256C552.107 544.904 553.377 535.285 555.916 526.398C558.553 517.512 562.41 509.699 567.488 502.961C572.664 496.223 579.061 490.998 586.678 487.287C594.295 483.479 603.084 481.574 613.045 481.574C620.662 481.574 627.596 482.697 633.846 484.943C640.096 487.092 645.418 490.559 649.812 495.344C654.305 500.031 657.723 506.184 660.066 513.801C662.508 521.418 663.729 530.744 663.729 541.779V643H621.395V541.779C621.395 534.455 620.418 528.889 618.465 525.08C616.609 521.174 613.875 518.488 610.262 517.023C606.746 515.461 602.547 514.68 597.664 514.68C592.586 514.68 588.143 515.705 584.334 517.756C580.525 519.709 577.352 522.443 574.812 525.959C572.273 529.475 570.369 533.576 569.1 538.264C567.83 542.854 567.195 547.883 567.195 553.352ZM740.926 484.504V643H698.592V484.504H740.926ZM695.955 443.195C695.955 437.043 698.104 431.965 702.4 427.961C706.697 423.957 712.459 421.955 719.686 421.955C726.814 421.955 732.527 423.957 736.824 427.961C741.219 431.965 743.416 437.043 743.416 443.195C743.416 449.348 741.219 454.426 736.824 458.43C732.527 462.434 726.814 464.436 719.686 464.436C712.459 464.436 706.697 462.434 702.4 458.43C698.104 454.426 695.955 449.348 695.955 443.195ZM817.098 518.342V643H774.91V484.504H814.461L817.098 518.342ZM810.945 558.186H799.52C799.52 546.467 801.033 535.92 804.061 526.545C807.088 517.072 811.336 509.016 816.805 502.375C822.273 495.637 828.768 490.51 836.287 486.994C843.904 483.381 852.4 481.574 861.775 481.574C869.197 481.574 875.984 482.648 882.137 484.797C888.289 486.945 893.562 490.363 897.957 495.051C902.449 499.738 905.867 505.939 908.211 513.654C910.652 521.369 911.873 530.793 911.873 541.926V643H869.393V541.779C869.393 534.748 868.416 529.279 866.463 525.373C864.51 521.467 861.629 518.732 857.82 517.17C854.109 515.51 849.52 514.68 844.051 514.68C838.387 514.68 833.455 515.803 829.256 518.049C825.154 520.295 821.736 523.42 819.002 527.424C816.365 531.33 814.363 535.92 812.996 541.193C811.629 546.467 810.945 552.131 810.945 558.186ZM1044.29 484.504H1082.53V637.727C1082.53 652.18 1079.3 664.436 1072.86 674.494C1066.51 684.65 1057.62 692.316 1046.2 697.492C1034.77 702.766 1021.49 705.402 1006.36 705.402C999.715 705.402 992.684 704.523 985.262 702.766C977.938 701.008 970.906 698.273 964.168 694.562C957.527 690.852 951.961 686.164 947.469 680.5L966.072 655.598C970.955 661.262 976.619 665.656 983.064 668.781C989.51 672.004 996.639 673.615 1004.45 673.615C1012.07 673.615 1018.51 672.199 1023.79 669.367C1029.06 666.633 1033.11 662.58 1035.95 657.209C1038.78 651.936 1040.19 645.539 1040.19 638.02V521.125L1044.29 484.504ZM937.654 565.656V562.58C937.654 550.471 939.119 539.484 942.049 529.621C945.076 519.66 949.324 511.115 954.793 503.986C960.359 496.857 967.098 491.34 975.008 487.434C982.918 483.527 991.854 481.574 1001.81 481.574C1012.36 481.574 1021.2 483.527 1028.33 487.434C1035.46 491.34 1041.32 496.906 1045.91 504.133C1050.5 511.262 1054.06 519.709 1056.6 529.475C1059.24 539.143 1061.29 549.738 1062.75 561.262V568C1061.29 579.035 1059.09 589.289 1056.16 598.762C1053.23 608.234 1049.37 616.535 1044.59 623.664C1039.8 630.695 1033.85 636.164 1026.72 640.07C1019.69 643.977 1011.29 645.93 1001.52 645.93C991.756 645.93 982.918 643.928 975.008 639.924C967.195 635.92 960.506 630.305 954.939 623.078C949.373 615.852 945.076 607.355 942.049 597.59C939.119 587.824 937.654 577.18 937.654 565.656ZM979.842 562.58V565.656C979.842 572.199 980.477 578.303 981.746 583.967C983.016 589.631 984.969 594.66 987.605 599.055C990.34 603.352 993.709 606.721 997.713 609.162C1001.81 611.506 1006.65 612.678 1012.21 612.678C1019.93 612.678 1026.23 611.066 1031.11 607.844C1035.99 604.523 1039.66 599.982 1042.1 594.221C1044.54 588.459 1045.96 581.818 1046.35 574.299V555.109C1046.15 548.957 1045.32 543.439 1043.86 538.557C1042.39 533.576 1040.34 529.328 1037.7 525.812C1035.07 522.297 1031.65 519.562 1027.45 517.609C1023.25 515.656 1018.27 514.68 1012.51 514.68C1006.94 514.68 1002.11 515.949 998.006 518.488C994.002 520.93 990.633 524.299 987.898 528.596C985.262 532.893 983.26 537.971 981.893 543.83C980.525 549.592 979.842 555.842 979.842 562.58ZM1303.72 587.189C1303.72 583.381 1303.13 579.963 1301.96 576.936C1300.89 573.811 1298.84 570.979 1295.81 568.439C1292.78 565.803 1288.53 563.215 1283.06 560.676C1277.6 558.137 1270.52 555.5 1261.82 552.766C1252.16 549.641 1242.98 546.125 1234.29 542.219C1225.69 538.312 1218.07 533.771 1211.43 528.596C1204.89 523.322 1199.71 517.219 1195.91 510.285C1192.2 503.352 1190.34 495.295 1190.34 486.115C1190.34 477.229 1192.29 469.172 1196.2 461.945C1200.11 454.621 1205.57 448.371 1212.61 443.195C1219.64 437.922 1227.94 433.869 1237.51 431.037C1247.18 428.205 1257.77 426.789 1269.29 426.789C1285.02 426.789 1298.74 429.621 1310.46 435.285C1322.18 440.949 1331.26 448.713 1337.7 458.576C1344.25 468.439 1347.52 479.719 1347.52 492.414H1303.87C1303.87 486.164 1302.55 480.695 1299.91 476.008C1297.37 471.223 1293.46 467.463 1288.19 464.729C1283.02 461.994 1276.47 460.627 1268.56 460.627C1260.95 460.627 1254.6 461.799 1249.52 464.143C1244.44 466.389 1240.63 469.465 1238.09 473.371C1235.55 477.18 1234.29 481.477 1234.29 486.262C1234.29 489.875 1235.16 493.146 1236.92 496.076C1238.78 499.006 1241.51 501.74 1245.12 504.279C1248.74 506.818 1253.18 509.211 1258.46 511.457C1263.73 513.703 1269.83 515.9 1276.77 518.049C1288.39 521.564 1298.59 525.52 1307.38 529.914C1316.27 534.309 1323.69 539.24 1329.65 544.709C1335.6 550.178 1340.1 556.379 1343.12 563.312C1346.15 570.246 1347.66 578.107 1347.66 586.896C1347.66 596.174 1345.86 604.475 1342.24 611.799C1338.63 619.123 1333.41 625.324 1326.57 630.402C1319.73 635.48 1311.58 639.338 1302.11 641.975C1292.63 644.611 1282.04 645.93 1270.32 645.93C1259.77 645.93 1249.37 644.562 1239.12 641.828C1228.87 638.996 1219.54 634.748 1211.14 629.084C1202.84 623.42 1196.2 616.193 1191.22 607.404C1186.24 598.615 1183.75 588.215 1183.75 576.203H1227.84C1227.84 582.844 1228.87 588.459 1230.92 593.049C1232.97 597.639 1235.85 601.35 1239.56 604.182C1243.37 607.014 1247.86 609.064 1253.04 610.334C1258.31 611.604 1264.07 612.238 1270.32 612.238C1277.94 612.238 1284.19 611.164 1289.07 609.016C1294.05 606.867 1297.71 603.889 1300.06 600.08C1302.5 596.271 1303.72 591.975 1303.72 587.189ZM1368.17 565.363V562.287C1368.17 550.666 1369.83 539.973 1373.15 530.207C1376.47 520.344 1381.31 511.799 1387.65 504.572C1394 497.346 1401.81 491.73 1411.09 487.727C1420.37 483.625 1431.01 481.574 1443.03 481.574C1455.04 481.574 1465.73 483.625 1475.11 487.727C1484.48 491.73 1492.34 497.346 1498.69 504.572C1505.13 511.799 1510.02 520.344 1513.34 530.207C1516.66 539.973 1518.32 550.666 1518.32 562.287V565.363C1518.32 576.887 1516.66 587.58 1513.34 597.443C1510.02 607.209 1505.13 615.754 1498.69 623.078C1492.34 630.305 1484.53 635.92 1475.25 639.924C1465.97 643.928 1455.33 645.93 1443.32 645.93C1431.31 645.93 1420.61 643.928 1411.24 639.924C1401.96 635.92 1394.1 630.305 1387.65 623.078C1381.31 615.754 1376.47 607.209 1373.15 597.443C1369.83 587.58 1368.17 576.887 1368.17 565.363ZM1410.36 562.287V565.363C1410.36 572.004 1410.95 578.205 1412.12 583.967C1413.29 589.729 1415.14 594.807 1417.68 599.201C1420.32 603.498 1423.74 606.867 1427.94 609.309C1432.14 611.75 1437.26 612.971 1443.32 612.971C1449.18 612.971 1454.21 611.75 1458.41 609.309C1462.61 606.867 1465.97 603.498 1468.51 599.201C1471.05 594.807 1472.91 589.729 1474.08 583.967C1475.35 578.205 1475.98 572.004 1475.98 565.363V562.287C1475.98 555.842 1475.35 549.787 1474.08 544.123C1472.91 538.361 1471 533.283 1468.37 528.889C1465.83 524.396 1462.46 520.881 1458.26 518.342C1454.06 515.803 1448.98 514.533 1443.03 514.533C1437.07 514.533 1431.99 515.803 1427.79 518.342C1423.69 520.881 1420.32 524.396 1417.68 528.889C1415.14 533.283 1413.29 538.361 1412.12 544.123C1410.95 549.787 1410.36 555.842 1410.36 562.287ZM1537.51 565.363V562.287C1537.51 550.666 1539.17 539.973 1542.49 530.207C1545.81 520.344 1550.64 511.799 1556.99 504.572C1563.34 497.346 1571.15 491.73 1580.43 487.727C1589.71 483.625 1600.35 481.574 1612.36 481.574C1624.37 481.574 1635.07 483.625 1644.44 487.727C1653.82 491.73 1661.68 497.346 1668.03 504.572C1674.47 511.799 1679.35 520.344 1682.67 530.207C1685.99 539.973 1687.65 550.666 1687.65 562.287V565.363C1687.65 576.887 1685.99 587.58 1682.67 597.443C1679.35 607.209 1674.47 615.754 1668.03 623.078C1661.68 630.305 1653.87 635.92 1644.59 639.924C1635.31 643.928 1624.67 645.93 1612.65 645.93C1600.64 645.93 1589.95 643.928 1580.57 639.924C1571.3 635.92 1563.44 630.305 1556.99 623.078C1550.64 615.754 1545.81 607.209 1542.49 597.443C1539.17 587.58 1537.51 576.887 1537.51 565.363ZM1579.7 562.287V565.363C1579.7 572.004 1580.28 578.205 1581.45 583.967C1582.62 589.729 1584.48 594.807 1587.02 599.201C1589.66 603.498 1593.07 606.867 1597.27 609.309C1601.47 611.75 1606.6 612.971 1612.65 612.971C1618.51 612.971 1623.54 611.75 1627.74 609.309C1631.94 606.867 1635.31 603.498 1637.85 599.201C1640.39 594.807 1642.24 589.729 1643.42 583.967C1644.69 578.205 1645.32 572.004 1645.32 565.363V562.287C1645.32 555.842 1644.69 549.787 1643.42 544.123C1642.24 538.361 1640.34 533.283 1637.7 528.889C1635.16 524.396 1631.79 520.881 1627.6 518.342C1623.4 515.803 1618.32 514.533 1612.36 514.533C1606.4 514.533 1601.33 515.803 1597.13 518.342C1593.03 520.881 1589.66 524.396 1587.02 528.889C1584.48 533.283 1582.62 538.361 1581.45 544.123C1580.28 549.787 1579.7 555.842 1579.7 562.287ZM1754.89 518.342V643H1712.7V484.504H1752.25L1754.89 518.342ZM1748.74 558.186H1737.31C1737.31 546.467 1738.83 535.92 1741.85 526.545C1744.88 517.072 1749.13 509.016 1754.6 502.375C1760.07 495.637 1766.56 490.51 1774.08 486.994C1781.7 483.381 1790.19 481.574 1799.57 481.574C1806.99 481.574 1813.78 482.648 1819.93 484.797C1826.08 486.945 1831.36 490.363 1835.75 495.051C1840.24 499.738 1843.66 505.939 1846 513.654C1848.45 521.369 1849.67 530.793 1849.67 541.926V643H1807.19V541.779C1807.19 534.748 1806.21 529.279 1804.26 525.373C1802.3 521.467 1799.42 518.732 1795.61 517.17C1791.9 515.51 1787.31 514.68 1781.84 514.68C1776.18 514.68 1771.25 515.803 1767.05 518.049C1762.95 520.295 1759.53 523.42 1756.79 527.424C1754.16 531.33 1752.16 535.92 1750.79 541.193C1749.42 546.467 1748.74 552.131 1748.74 558.186Z" fill="#535353"/>
</svg>
